<svg id="Layer_1" data-name="Layer 1" xmlns="http://www.w3.org/2000/svg" viewBox="0 0 300 100"><defs><style>.cls-1{fill:#fff}.cls-2{fill:#0fa8dc}.cls-2,.cls-3,.cls-4,.cls-5,.cls-6,.cls-7,.cls-8,.cls-9{fill-rule:evenodd}.cls-3{fill:#1885c6}.cls-4{fill:#3abb9d}.cls-5{fill:#6fbe48}.cls-6{fill:#21a051}.cls-7{fill:#1c8547}.cls-8{fill:#3dbc9e}.cls-9{fill:#92c677}</style></defs><title>Artboard 1</title><circle class="cls-1" cx="45.39" cy="50.97" r="38"/><path class="cls-2" d="M21.39 66.32a.29.29 0 0 1 .3.13 28.54 28.54 0 0 0 8.57 6.74c.75.38 1.5.76 2.28 1.06.93.37 1.88.69 2.84 1s1.77.47 2.67.65c.68.14 1.38.22 2.08.31a30.91 30.91 0 0 0 5.4.16c1 0 2-.19 2.94-.3a21.42 21.42 0 0 0 3.41-.72 25.6 25.6 0 0 0 3.23-1.15 29.22 29.22 0 0 0 4.39-2.35 30.1 30.1 0 0 0 4.28-3.38 27 27 0 0 0 4.69-5.87 22.82 22.82 0 0 0 2-4.37 21 21 0 0 0 .75-2.88 19.47 19.47 0 0 0 .28-4.81 19.44 19.44 0 0 0-1.3-5.82A21.39 21.39 0 0 0 68.41 41a17.37 17.37 0 0 0-4.49-4.86 22.37 22.37 0 0 0-5.22-2.81 26.75 26.75 0 0 0-3.7-1.12c-1.25-.29-2.52-.53-3.78-.75-.89-.15-1.78-.25-2.67-.35s-2-.17-3-.28c.25-.08.49-.17.74-.23.89-.22 1.78-.45 2.68-.63.72-.15 1.46-.24 2.19-.33a22.82 22.82 0 0 1 3.64-.12 23.81 23.81 0 0 1 3.33.38 21.9 21.9 0 0 1 4.92 1.52 21.43 21.43 0 0 1 5.14 3.22 21.12 21.12 0 0 1 5.24 6.59 19.43 19.43 0 0 1 1.4 3.59 17.33 17.33 0 0 1 .56 2.89 18.4 18.4 0 0 1 .1 3c-.06.91-.16 1.81-.26 2.71a21 21 0 0 1-.83 3.73 25.78 25.78 0 0 1-1.6 4 29.5 29.5 0 0 1-4.17 6.22 30.65 30.65 0 0 1-5.73 5.12 31.18 31.18 0 0 1-5.79 3.15A29.26 29.26 0 0 1 53.25 77c-1 .27-2.1.5-3.16.69a25.82 25.82 0 0 1-3.61.38c-.77 0-1.53.1-2.3.08-1.17 0-2.35-.12-3.52-.19a24.38 24.38 0 0 1-3.81-.6 26.14 26.14 0 0 1-3.26-1A24 24 0 0 1 28.76 74a23.06 23.06 0 0 1-3.18-2.51 25.12 25.12 0 0 1-4-4.92z"/><path class="cls-3" d="M18.55 58.21l.35.61a29.79 29.79 0 0 0 4.4 5.94 24.19 24.19 0 0 0 6.63 5 19.27 19.27 0 0 0 4.48 1.61 27.3 27.3 0 0 0 4.5.61 27.82 27.82 0 0 0 9.16-1 25.36 25.36 0 0 0 8-3.82 20.56 20.56 0 0 0 6.25-7.07 18.7 18.7 0 0 0 1.87-5.37 18.35 18.35 0 0 0 .29-4.36 17 17 0 0 0-3.7-9.95 17.25 17.25 0 0 0-5.62-4.54 22.56 22.56 0 0 0-6.1-2.1c-.83-.16-1.68-.27-2.52-.41a.24.24 0 0 1-.16-.1c.36-.08.71-.17 1.07-.23a16.28 16.28 0 0 1 3.8-.23 18.16 18.16 0 0 1 4.57.84 20.5 20.5 0 0 1 6.59 3.49 19.24 19.24 0 0 1 6.18 8.27 17.31 17.31 0 0 1 1.07 4.49 18 18 0 0 1 .09 2.61 20 20 0 0 1-.62 4.15 21.22 21.22 0 0 1-3 6.66 24.87 24.87 0 0 1-4 4.58 28.86 28.86 0 0 1-5.92 4.08 30.24 30.24 0 0 1-5.46 2.21 29.29 29.29 0 0 1-4.33.93 26.78 26.78 0 0 1-4.31.26 25.4 25.4 0 0 1-14.72-5.17 26.6 26.6 0 0 1-7.92-9.59c-.35-.71-.64-1.45-1-2.18a.72.72 0 0 1 0-.2zm48-.39a1.28 1.28 0 1 0 0-2.56 1.28 1.28 0 1 0 0 2.56zm-2 2.49a1.25 1.25 0 0 0-1.3 1.26 1.28 1.28 0 0 0 1.27 1.3 1.26 1.26 0 0 0 1.29-1.27 1.23 1.23 0 0 0-1.35-1.29zm-3.21 4.23a1.16 1.16 0 0 0-1.16 1.15 1.16 1.16 0 1 0 2.31 0 1.16 1.16 0 0 0-1.24-1.15zM67 50.07a1.15 1.15 0 1 0 1.15 1.16A1.14 1.14 0 0 0 67 50.07zm.32-3.63a1.05 1.05 0 0 0-1-1 1.08 1.08 0 0 0-1.06 1 1.06 1.06 0 0 0 1.06 1 1 1 0 0 0 .98-1zm-9.76 21.33a1 1 0 1 0 1 1.06 1 1 0 0 0-1-1.06zm-4.29 4.39a.93.93 0 0 0 0-1.87.94.94 0 0 0-1 .92.93.93 0 0 0 1 .95zm11.16-28.8a.92.92 0 0 0 .94-.92.94.94 0 1 0-1.87 0 .91.91 0 0 0 .92.92zm-1.93-4.59a.81.81 0 0 0-.79-.8.83.83 0 0 0-.82.81.84.84 0 0 0 .8.81.82.82 0 0 0 .81-.82zM48.84 73.48a.78.78 0 0 0 .8-.78.8.8 0 1 0-1.6 0 .77.77 0 0 0 .8.78zm-3.92 0a.56.56 0 0 0-.58-.6.58.58 0 0 0-.61.58.59.59 0 1 0 1.19 0zm12.7-37.31a.58.58 0 0 0 .58.6.6.6 0 1 0 0-1.2.59.59 0 0 0-.58.6zM40.21 73a.53.53 0 0 0-.55.52.54.54 0 1 0 1.08 0 .53.53 0 0 0-.53-.52z"/><path class="cls-4" d="M22.43 59.28a.78.78 0 0 1 .19 0 7.54 7.54 0 0 0 2.45.87 18.9 18.9 0 0 0 3.43.41c1.52 0 3 .07 4.55 0a21.55 21.55 0 0 0 4.27-.55 11.52 11.52 0 0 0 3.93-1.57 4.65 4.65 0 0 0 1.08-1 1.48 1.48 0 0 0-.22-2.19 4.55 4.55 0 0 0-1.46-.91c-.59-.24-1.19-.42-1.79-.63l-.29-.09h18.87c0 .27-.07.52-.12.76a13.76 13.76 0 0 1-2.3 5 15.53 15.53 0 0 1-6.46 5.06A22.12 22.12 0 0 1 43.84 66a26 26 0 0 1-3.91.48c-.62 0-1.25.1-1.87.08-1 0-2-.12-3-.19a16.9 16.9 0 0 1-3.17-.59 18.42 18.42 0 0 1-4.85-2.09A15.34 15.34 0 0 1 23.77 61c-.45-.49-.85-1-1.26-1.57a1.18 1.18 0 0 1-.08-.15z"/><path class="cls-5" d="M18.6 54.85c.27.54.52 1.09.8 1.63a24.9 24.9 0 0 0 3.27 4.79 21.62 21.62 0 0 0 5.42 4.56 17.69 17.69 0 0 0 3.43 1.55l2.07.69a11.24 11.24 0 0 0 2 .47 16.83 16.83 0 0 0 3.17.26 11.72 11.72 0 0 0 2.24-.34l2.75-.68a2.77 2.77 0 0 1 1.43.08 2.27 2.27 0 0 0 1.68-.21 16.54 16.54 0 0 0 2.1-1.34l2-1.44.19-.12a1.05 1.05 0 0 1 1.15 0 1.33 1.33 0 0 0 1.14.16 1.39 1.39 0 0 0 .35-.18 5.63 5.63 0 0 0 2.07-2.84c.19-.56.35-1.14.57-1.69a1.11 1.11 0 0 1 1.19-.82 5.67 5.67 0 0 0 .91 0 .88.88 0 0 0 .72-.49 4.25 4.25 0 0 0 .49-1.89 7.79 7.79 0 0 0-.51-2.89c-.2-.58-.4-1.16-.58-1.75a2.08 2.08 0 0 1-.08-1c0-.32.18-.47.58-.56l.53-.12a1.19 1.19 0 0 0 1-1.18 2.62 2.62 0 0 0-.54-2q-.86-1.09-1.71-2.19a5 5 0 0 1-.87-1.45 1.58 1.58 0 0 1 0-.81.4.4 0 0 1 .15-.19c.1-.08.22-.15.33-.23a.7.7 0 0 0 .28-.77 1.59 1.59 0 0 0-1-1.16c-.53-.24-1.09-.44-1.62-.69a2.46 2.46 0 0 1-.91-.75 7.64 7.64 0 0 0-2.51-2l-1.55-.84-.22-.14a2 2 0 0 1 .33-.09 4 4 0 0 1 1.32.15 15.05 15.05 0 0 1 5 2.42A12.09 12.09 0 0 1 59.54 41a12.35 12.35 0 0 1 1 1.46 19.92 19.92 0 0 1 1.89 4.14 13.83 13.83 0 0 1 .68 3.33 26 26 0 0 1 0 2.67 12.23 12.23 0 0 1-.38 2.4 18.68 18.68 0 0 1-3.41 6.88 26.55 26.55 0 0 1-3.44 3.65 17.2 17.2 0 0 1-4.52 2.84A24.91 24.91 0 0 1 43 70.5c-1.26.08-2.52.08-3.78 0a22.07 22.07 0 0 1-2.51-.3 24.61 24.61 0 0 1-11.81-5.39 20.5 20.5 0 0 1-6.38-9.7.86.86 0 0 1 0-.14z"/><path class="cls-6" d="M19.21 43.07c.13-.05.09-.17.09-.27a8 8 0 0 1 .11-1.8 2.55 2.55 0 0 1 .35-.95v1.7a14 14 0 0 0 .33 3 8.6 8.6 0 0 0 4.1 5.46 12.09 12.09 0 0 0 4.58 1.5 11.4 11.4 0 0 0 6.75-1.16 5.54 5.54 0 0 0 2.39-2.12 4.09 4.09 0 0 0 .21-.4v-.11a1.38 1.38 0 0 0 .34-.84 13.36 13.36 0 0 0-.08-1.47 7.08 7.08 0 0 0-1-2.35 6.71 6.71 0 0 0-1.84-1.94l-.76-.58h-.06a2.88 2.88 0 0 0 .06.35 9.31 9.31 0 0 1 .4 1.8 4.28 4.28 0 0 1-.49 2.77A3.21 3.21 0 0 1 33.15 47l-.19.06h-.17L33 47a5.82 5.82 0 0 0 1.26-1.84 3.48 3.48 0 0 0 .26-1.7c-.07-.72-.19-1.43-.28-2.14a5.49 5.49 0 0 1 0-.74c0-.2.09-.29.29-.26a2.22 2.22 0 0 1 .65.19 5.86 5.86 0 0 1 1.64 1.25 8 8 0 0 1 1.69 2.47 5.07 5.07 0 0 1 .41 2.64 2.62 2.62 0 0 0 0 .28l-.12.57c-.1.25-.18.5-.3.74a7 7 0 0 1-3.36 3.37 9.08 9.08 0 0 1-2.94.8c-.86.11-1.73.16-2.63.24v.23a.37.37 0 0 1-.32.5.57.57 0 0 1-.56-.13 4.81 4.81 0 0 1-.5-.57.42.42 0 0 0-.32-.2 11.1 11.1 0 0 1-3.29-.93 8.59 8.59 0 0 1-4.5-4.91 12.66 12.66 0 0 1-.75-3.25 2.76 2.76 0 0 0-.11-.42.07.07 0 0 0-.01-.12z"/><path class="cls-7" d="M19.21 43.07a2.65 2.65 0 0 1-.95 1.24h-.07c-.3.18-.45.11-.52-.23-.17-.87-.34-1.75-.54-2.61a26.83 26.83 0 0 0-1.3-3.87c-.24-.6-.24-.6.35-.83l2.68-1a6 6 0 0 0 1.87-1.16 18.29 18.29 0 0 1 3.54-2.5 12.63 12.63 0 0 1 4.28-1.37A10.29 10.29 0 0 1 35 32a7.84 7.84 0 0 1 3 2.7 8.11 8.11 0 0 1 .45.88c.06.13 0 .21-.14.26-1.16.34-2.32.69-3.48 1l-.74.25a.27.27 0 0 1 .1-.39 2.13 2.13 0 0 1 .52-.29c.94-.33 1.88-.64 2.82-1h.12a1.6 1.6 0 0 0-.09-.18A8 8 0 0 0 33 31.77a10 10 0 0 0-3.63-.3A14.09 14.09 0 0 0 23 33.81a12.81 12.81 0 0 0-2.41 1.93.89.89 0 0 1-.31.19l-3.71 1.48h-.1a21.41 21.41 0 0 1 1.65 6.46 4.54 4.54 0 0 0 1.09-.8z"/><path class="cls-8" d="M25.09 55.14c-.33.13-.67.24-1 .4a4.32 4.32 0 0 0-.8.53.72.72 0 0 0 0 1.1 3 3 0 0 0 1 .64 11.27 11.27 0 0 0 2.71.69 23.19 23.19 0 0 0 4.33.26 22.51 22.51 0 0 0 2.88-.25 11.72 11.72 0 0 0 2.42-.59 6.21 6.21 0 0 0 1.1-.58 1.45 1.45 0 0 0 .4-.5.39.39 0 0 0-.11-.54 3.65 3.65 0 0 0-.66-.43 11.48 11.48 0 0 0-2.47-.74l-.64-.13a.79.79 0 0 1-.2-.08 14.54 14.54 0 0 1 3.42.15 3.84 3.84 0 0 1 1.74.65 1.74 1.74 0 0 1 .46.52 1 1 0 0 1-.34 1.38 5.43 5.43 0 0 1-1.05.61 12.71 12.71 0 0 1-3.28.86 22.85 22.85 0 0 1-3.51.29h-2.75c-.91 0-1.88-.19-2.82-.31a12.45 12.45 0 0 1-2.45-.58 4.74 4.74 0 0 1-1.61-.8l-.06-.05c-.61-.58-.57-1 0-1.46a5.08 5.08 0 0 1 1.74-.86 7.12 7.12 0 0 1 .91-.21 5.5 5.5 0 0 1 .64 0z"/><path class="cls-7" d="M38.43 47.16a1.38 1.38 0 0 1-.34.84 9.5 9.5 0 0 1-3.76.87 7.72 7.72 0 0 1-3.18-.5 5.34 5.34 0 0 1-3.49-4.59 5.11 5.11 0 0 1 1-3.78 4.83 4.83 0 0 1 2.49-1.66 10.07 10.07 0 0 1 2.71-.46h2.3a.25.25 0 0 1 .26.34c0 .05-.16.07-.25.07a14.38 14.38 0 0 0-3.73.29 6.69 6.69 0 0 0-2.29.89A3.3 3.3 0 0 0 28.84 41a6.1 6.1 0 0 0-.5 2.63 4.29 4.29 0 0 0 1.74 3.25 6.47 6.47 0 0 0 3.21 1.28 9 9 0 0 0 4.78-.67c.17-.05.33-.12.36-.33zm.34.51l.12-.57a15 15 0 0 0 2.51-1.85 23.65 23.65 0 0 0 2.6-2.53 2.19 2.19 0 0 1 1.2-.67 9.41 9.41 0 0 1 3.7-.12 2.08 2.08 0 0 1 .53.18c.1 0 .23.11.2.27a5 5 0 0 0-.83-.16h-2.56a5.14 5.14 0 0 0-1.11.22 1.93 1.93 0 0 0-.43.25.68.68 0 0 0 .47.32 7.77 7.77 0 0 0 1.89.23 7.27 7.27 0 0 0 3.11-.55.69.69 0 0 1 .86.19c.46.49.9 1 1.4 1.46a15.28 15.28 0 0 0 4.94 3.13.15.15 0 0 1 .09.1h-.36a9.69 9.69 0 0 1-3.93-1.91A14.1 14.1 0 0 1 51 43.45a.77.77 0 0 0-1-.27 8.31 8.31 0 0 1-3.81.38c-.61-.09-1.2-.27-1.84-.41-.33.32-.69.68-1.06 1a29 29 0 0 1-3.63 3c-.27.18-.59.34-.89.52z"/><path class="cls-8" d="M33.93 55.54a3.35 3.35 0 0 1 1.57.34c.55.31.58.74.06 1.1a4.4 4.4 0 0 1-1.58.59 16 16 0 0 1-4.13.33 12.78 12.78 0 0 1-3.14-.44 9.67 9.67 0 0 1-1.1-.46.81.81 0 0 1-.24-.19.41.41 0 0 1-.12-.49.55.55 0 0 1 .55-.32c-.15.43.11.64.42.81a4.7 4.7 0 0 0 1.65.49c.54.08 1.09.13 1.64.18h.88a12.15 12.15 0 0 0 3.16-.28 4.22 4.22 0 0 0 1-.37c.4-.21.41-.58.06-.87s-.43-.31-.64-.46z"/><path class="cls-7" d="M28.05 49.57c-.13 0-.26-.08-.39-.13a6 6 0 0 1-1.59-1A7.68 7.68 0 0 1 24 45.83a9.37 9.37 0 0 1-1-4.05 3.57 3.57 0 0 1 .59-2 2 2 0 0 1 .15-.17h.07l-.18.69a7.2 7.2 0 0 0 .5 4.82 9.56 9.56 0 0 0 3.51 4c.16.1.3.22.45.33zm.13-10.98a2.63 2.63 0 0 1-.31.27l-1.28.79a.63.63 0 0 1-.72 0 4.13 4.13 0 0 1-1.7-1.92c0-.05 0-.11-.06-.16-.16-.54-.05-.77.48-1a6.51 6.51 0 0 1 3.59-.18 1.51 1.51 0 0 1 .73.38l-1.11-.06a10.78 10.78 0 0 0-2.38.07 2.34 2.34 0 0 0-.54.17.34.34 0 0 0-.23.43 2.2 2.2 0 0 0 1.67 1.77 1.1 1.1 0 0 0 .52-.08c.35-.13.7-.29 1-.44l.28-.11zm6.26-3.94A.39.39 0 0 1 34 35a.5.5 0 0 1-.49-.46.38.38 0 0 1 .43-.35.47.47 0 0 1 .5.46zm8.99 10.61a4 4 0 0 1 .32-.41 2 2 0 0 0 .62-.89c.06-.2.13-.22.36-.14a1 1 0 0 1-.11.31 7.49 7.49 0 0 1-.58.65c-.18.18-.38.33-.57.5zm4.42-1.08c.29-.05.35 0 .39.16a1.11 1.11 0 0 1 0 .49 1.14 1.14 0 0 0-.09.6c0 .18 0 .32-.24.46v-.22a1.38 1.38 0 0 0 0-.42.66.66 0 0 1 .08-.56v-.23a2.37 2.37 0 0 0-.14-.28zM44.9 45.5a1.52 1.52 0 0 1 .16-.37 1.45 1.45 0 0 0 .26-.65 1.55 1.55 0 0 1 .11-.35l.15-.09c.05-.03.09.13.08.18 0 .23-.12.45-.18.67a.27.27 0 0 1-.06.09l-.46.53zm4.32-1.59a.31.31 0 0 1 .29.29.65.65 0 0 0 .09.31 1 1 0 0 1 .22.79 1.57 1.57 0 0 1 0 .37 4.67 4.67 0 0 0-.14-.55 4.2 4.2 0 0 0-.31-.65.71.71 0 0 1-.15-.56zm-2.3.3c-.08.34 0 .69-.19 1a3.22 3.22 0 0 0-.26.54.4.4 0 0 1 0-.47 1.61 1.61 0 0 0 .25-.86c-.03-.11 0-.21.2-.21zm3.37-.49c.19-.08.3 0 .34.14a3 3 0 0 0 .63 1c-.31-.07-.43-.29-.59-.47a1.19 1.19 0 0 1-.38-.67z"/><path class="cls-9" d="M18.6 54.85l-.1.11a2.36 2.36 0 0 1-.23-.78h.07z"/><path class="cls-7" d="M49.64 42.38l.02.01-.01-.01h-.01z"/><path class="cls-1" d="M45.39 94.66A43.69 43.69 0 1 1 89.08 51a43.74 43.74 0 0 1-43.69 43.66zm0-85.6A41.91 41.91 0 1 0 87.3 51 42 42 0 0 0 45.39 9.06zm68.82 34.3l.28.17a1.31 1.31 0 0 0 .11.55 2.18 2.18 0 0 0 .76.81 7.06 7.06 0 0 0 1.3.71 9.53 9.53 0 0 0 1.54.5 6.29 6.29 0 0 0 1.44.19 11 11 0 0 0 1.22-.09 6 6 0 0 0 1.47-.36 3.86 3.86 0 0 0 1.25-.76 1.66 1.66 0 0 0 .53-1.28 1.41 1.41 0 0 0-.48-1.18 3.13 3.13 0 0 0-1.27-.55 11.17 11.17 0 0 0-1.8-.23q-1-.05-2.06-.16a15.23 15.23 0 0 1-2.06-.35 5 5 0 0 1-1.8-.81 4.11 4.11 0 0 1-1.3-1.52 5.87 5.87 0 0 1-.48-2.58 5.81 5.81 0 0 1 .4-2.11 5 5 0 0 1 1.23-1.83 6.39 6.39 0 0 1 2.1-1.3 8.15 8.15 0 0 1 3-.5 10.36 10.36 0 0 1 2.55.28 15.92 15.92 0 0 1 1.87.59q.79.31 1.33.59a2.08 2.08 0 0 0 .9.28.67.67 0 0 0 .55-.21l.33.28-1.91 4.33-.28-.14a2.24 2.24 0 0 0-.22-.8A2.66 2.66 0 0 0 124 35a5.93 5.93 0 0 0-1.2-.71 8.32 8.32 0 0 0-1.5-.5 7 7 0 0 0-1.61-.19 6.88 6.88 0 0 0-1.26.12 5 5 0 0 0-1.18.36 2.55 2.55 0 0 0-.87.64 1.45 1.45 0 0 0-.35 1 1.55 1.55 0 0 0 .48 1.25 3.17 3.17 0 0 0 1.27.62 9.7 9.7 0 0 0 1.8.28q1 .07 2.06.17a13.63 13.63 0 0 1 2.06.36 5.28 5.28 0 0 1 1.8.83 4.15 4.15 0 0 1 1.27 1.54 5.67 5.67 0 0 1 .48 2.53 5.21 5.21 0 0 1-.76 2.94 5.69 5.69 0 0 1-1.9 1.8 7.29 7.29 0 0 1-2.45.88 14.6 14.6 0 0 1-2.45.23 13.09 13.09 0 0 1-2.64-.23 8.25 8.25 0 0 1-1.77-.55 10.68 10.68 0 0 1-1.12-.59 1.42 1.42 0 0 0-.72-.26q-.19 0-.36.28l-.39-.28zm17.31 5.09q.72 0 .72-.62V32.1q0-.62-.72-.62v-.62h4.6v.62q-.72 0-.72.62v15.72q0 .62.72.62v.62h-4.6zm16.95-.63a.54.54 0 0 0 .61.62v.62h-4.27v-.62a.47.47 0 0 0 .35-.16.65.65 0 0 0 .15-.47V34h-4.57a.81.81 0 0 0-.48.17.77.77 0 0 0-.24.66h-.5V30h.5a.77.77 0 0 0 .24.66.81.81 0 0 0 .48.17H153a.81.81 0 0 0 .48-.17.77.77 0 0 0 .24-.66h.5v4.85h-.5a.77.77 0 0 0-.24-.66.81.81 0 0 0-.48-.19h-4.57zm12.68 0a.61.61 0 0 0 .17.47.55.55 0 0 0 .39.16v.62h-4.32v-.62a.55.55 0 0 0 .61-.62V32.1a.54.54 0 0 0-.61-.62v-.62h4.32v.62a.55.55 0 0 0-.39.16.61.61 0 0 0-.17.47v6.58l5.74-5.69.61-.67a.75.75 0 0 0 .22-.43.43.43 0 0 0-.12-.35.44.44 0 0 0-.29-.1v-.62h5.82v.62a1.42 1.42 0 0 0-1 .52l-6.37 6.34 5.82 8.41a8.15 8.15 0 0 0 .84 1 2.64 2.64 0 0 0 1 .68v.62h-5.12v-.62c.24 0 .36-.08.36-.24a2.12 2.12 0 0 0-.39-.76l-4.74-6.82-2.33 2.25zm13.27.63A.82.82 0 0 0 175 48a8.06 8.06 0 0 0 .4-.87l5.12-13.47.35-.83a1.82 1.82 0 0 0 .15-.66.56.56 0 0 0-.19-.48 1.48 1.48 0 0 0-.42-.21v-.62h4.68v.62a2 2 0 0 0-.39.19.55.55 0 0 0-.19.5 1.66 1.66 0 0 0 .1.55q.1.28.29.73l5.76 14.09a1.15 1.15 0 0 0 .37.55 5.36 5.36 0 0 0 .54.35v.62h-4.87v-.62a.56.56 0 0 0 .28-.1.34.34 0 0 0 .17-.31 2.57 2.57 0 0 0-.22-.9l-1.05-2.56h-6.78l-1 2.46a3.44 3.44 0 0 0-.28 1q0 .38.53.38v.62h-3.93zM184.86 42l-2.33-6.44-2.6 6.44zm16.59 1.36l.28.17a1.31 1.31 0 0 0 .11.55 2.18 2.18 0 0 0 .76.81 7.06 7.06 0 0 0 1.3.71 9.53 9.53 0 0 0 1.54.5 6.29 6.29 0 0 0 1.44.19 11 11 0 0 0 1.22-.09 6 6 0 0 0 1.47-.36 3.86 3.86 0 0 0 1.25-.76 1.66 1.66 0 0 0 .53-1.28 1.41 1.41 0 0 0-.48-1.18 3.13 3.13 0 0 0-1.27-.55 11.17 11.17 0 0 0-1.8-.23q-1-.05-2.06-.16a15.23 15.23 0 0 1-2.06-.35 5 5 0 0 1-1.8-.81 4.11 4.11 0 0 1-1.3-1.52 5.87 5.87 0 0 1-.48-2.58 5.81 5.81 0 0 1 .4-2.11 5 5 0 0 1 1.23-1.83 6.39 6.39 0 0 1 2.1-1.3 8.15 8.15 0 0 1 3-.5 10.36 10.36 0 0 1 2.55.28 15.92 15.92 0 0 1 1.87.59q.79.31 1.33.59a2.08 2.08 0 0 0 .9.28.67.67 0 0 0 .55-.21l.33.28-1.91 4.33-.28-.14a2.24 2.24 0 0 0-.22-.8 2.66 2.66 0 0 0-.73-.81 5.93 5.93 0 0 0-1.2-.71 8.32 8.32 0 0 0-1.5-.5 7 7 0 0 0-1.61-.19 6.88 6.88 0 0 0-1.26.12 5 5 0 0 0-1.18.36 2.55 2.55 0 0 0-.87.64 1.45 1.45 0 0 0-.35 1 1.55 1.55 0 0 0 .48 1.25 3.17 3.17 0 0 0 1.27.62 9.7 9.7 0 0 0 1.8.28q1 .07 2.06.17a13.63 13.63 0 0 1 2.06.36 5.28 5.28 0 0 1 1.8.83 4.15 4.15 0 0 1 1.28 1.49 5.67 5.67 0 0 1 .48 2.53 5.21 5.21 0 0 1-.76 2.94 5.69 5.69 0 0 1-1.9 1.8 7.29 7.29 0 0 1-2.45.88 14.6 14.6 0 0 1-2.45.23 13.09 13.09 0 0 1-2.64-.23 8.25 8.25 0 0 1-1.77-.55 10.68 10.68 0 0 1-1.12-.59 1.42 1.42 0 0 0-.72-.26q-.19 0-.36.28l-.39-.28zm25.79-12.71a9.08 9.08 0 0 1 3.1.57 9 9 0 0 1 2.88 1.71 8.82 8.82 0 0 1 2.13 2.89 9.55 9.55 0 0 1 .83 4.14 9.55 9.55 0 0 1-.83 4.14 8.83 8.83 0 0 1-2.13 2.9 8.24 8.24 0 0 1-2.88 1.66 9.52 9.52 0 0 1-6.2 0 8.24 8.24 0 0 1-2.89-1.66 8.82 8.82 0 0 1-2.13-2.89 9.55 9.55 0 0 1-.83-4.14 9.55 9.55 0 0 1 .83-4.14 8.82 8.82 0 0 1 2.13-2.89 9 9 0 0 1 2.88-1.71 9.08 9.08 0 0 1 3.11-.58zm0 3.19a5.7 5.7 0 0 0-2.1.42 6.06 6.06 0 0 0-1.9 1.19 6 6 0 0 0-1.37 1.92 6.67 6.67 0 0 0 0 5.19 6 6 0 0 0 1.37 1.92 6 6 0 0 0 1.9 1.19 5.54 5.54 0 0 0 4.21 0 6.06 6.06 0 0 0 1.9-1.19 6 6 0 0 0 1.37-1.92 6.67 6.67 0 0 0 0-5.19 6 6 0 0 0-1.37-1.92 6.07 6.07 0 0 0-1.9-1.19 5.7 5.7 0 0 0-2.11-.42zm17.14-2.36a.54.54 0 0 0-.61.62v10.39a3.48 3.48 0 0 0 1.12 3 7 7 0 0 0 6.56 0 3.48 3.48 0 0 0 1.12-3V32.1q0-.62-.83-.62v-.62h4.43v.62q-.66 0-.66.62v10.22a10.27 10.27 0 0 1-.47 3.38 4.82 4.82 0 0 1-1.41 2.13 5.08 5.08 0 0 1-2.34 1.07 18.93 18.93 0 0 1-6.45 0 5.07 5.07 0 0 1-2.34-1.07 4.81 4.81 0 0 1-1.41-2.13 10.26 10.26 0 0 1-.47-3.38V32.1q0-.62-.78-.62v-.62h4.54zm16.15 16.97q.53 0 .53-.62V32.1q0-.62-.53-.62v-.62h4.74v.62q-.22 0-.22.35a2.12 2.12 0 0 0 .55 1l7.95 10.32v-11q0-.62-.72-.62v-.62H277v.62q-.53 0-.53.62v15.67q0 .62.53.62v.62h-4.49v-.62c.24 0 .36-.1.36-.31a1.67 1.67 0 0 0-.44-.8l-8.45-11v11.49a.56.56 0 0 0 .64.62v.62h-4.1zm30.27-17.59a7.25 7.25 0 0 1 2.84.55 6.14 6.14 0 0 1 2.28 1.68 8.13 8.13 0 0 1 1.52 2.84 13.16 13.16 0 0 1 .55 4 13.16 13.16 0 0 1-.55 4 8.12 8.12 0 0 1-1.52 2.84 6.12 6.12 0 0 1-2.28 1.68 7.24 7.24 0 0 1-2.84.55h-9.2v-.62a.56.56 0 0 0 .64-.62V32.1a.56.56 0 0 0-.64-.62v-.62zm-1.11 15.23a8.3 8.3 0 0 0 2.27-.28 3.34 3.34 0 0 0 1.61-1 4.56 4.56 0 0 0 1-1.89 11.65 11.65 0 0 0 .32-3 11.66 11.66 0 0 0-.32-3 4.57 4.57 0 0 0-1-1.89 3.35 3.35 0 0 0-1.61-1 8.31 8.31 0 0 0-2.27-.28h-4.29v12.34zM113.93 65.11l.21.13a1 1 0 0 0 .08.42 1.64 1.64 0 0 0 .57.61 5.29 5.29 0 0 0 1 .53 7.12 7.12 0 0 0 1.15.38 4.72 4.72 0 0 0 1.08.14 8.17 8.17 0 0 0 .91-.07A4.45 4.45 0 0 0 120 67a2.89 2.89 0 0 0 .94-.57 1.25 1.25 0 0 0 .39-1 1.05 1.05 0 0 0-.36-.88 2.34 2.34 0 0 0-1-.42 8.36 8.36 0 0 0-1.35-.17q-.76 0-1.55-.12a11.41 11.41 0 0 1-1.55-.26 3.77 3.77 0 0 1-1.35-.61 3.09 3.09 0 0 1-1-1.17 4.82 4.82 0 0 1-.06-3.52 3.78 3.78 0 0 1 .92-1.38 4.79 4.79 0 0 1 1.58-1 6.11 6.11 0 0 1 2.24-.38 7.77 7.77 0 0 1 1.91.21 12.05 12.05 0 0 1 1.4.44q.59.23 1 .44a1.56 1.56 0 0 0 .68.21.5.5 0 0 0 .42-.16l.25.21-1.43 3.25-.21-.1a1.68 1.68 0 0 0-.17-.6 2 2 0 0 0-.55-.61 4.45 4.45 0 0 0-.9-.53 6.25 6.25 0 0 0-1.12-.38 5.23 5.23 0 0 0-1.21-.14 5.17 5.17 0 0 0-.95.09 3.76 3.76 0 0 0-.88.27 1.92 1.92 0 0 0-.65.48 1.09 1.09 0 0 0-.26.74 1.16 1.16 0 0 0 .36.94 2.38 2.38 0 0 0 1 .47A7.29 7.29 0 0 0 118 61l1.55.13a10.33 10.33 0 0 1 1.55.27 4 4 0 0 1 1.35.62 3.12 3.12 0 0 1 1 1.16 4.25 4.25 0 0 1 .36 1.9 3.91 3.91 0 0 1-.57 2.21 4.27 4.27 0 0 1-1.42 1.35 5.48 5.48 0 0 1-1.84.66 10.94 10.94 0 0 1-1.84.17 9.8 9.8 0 0 1-2-.17 6.22 6.22 0 0 1-1.33-.42 8.15 8.15 0 0 1-.84-.44 1.06 1.06 0 0 0-.54-.19q-.15 0-.27.21l-.29-.21zm24.59 2.42h-.23a1.73 1.73 0 0 0-.59.31q-.47.31-1.18.7a9.07 9.07 0 0 1-1.63.68 6.37 6.37 0 0 1-1.91.29 7.65 7.65 0 0 1-2.51-.42 5.85 5.85 0 0 1-2.13-1.29 6.19 6.19 0 0 1-1.47-2.17 8.78 8.78 0 0 1 0-6.07 6.3 6.3 0 0 1 1.47-2.2 6.09 6.09 0 0 1 2.11-1.36 7.26 7.26 0 0 1 2.51-.44 8.22 8.22 0 0 1 1.92.21 14.4 14.4 0 0 1 1.51.44 7.29 7.29 0 0 1 1 .44 1.62 1.62 0 0 0 .46.21.21.21 0 0 0 .18-.13l.11-.21.31.31-1.6 3.17-.21-.18a1.2 1.2 0 0 0 0-.16v-.18a1 1 0 0 0-.42-.58 4 4 0 0 0-.92-.53 8 8 0 0 0-1.2-.37 4.62 4.62 0 0 0-1.13-.16 4.56 4.56 0 0 0-1.67.31 4 4 0 0 0-1.39.91 4.41 4.41 0 0 0-.91 1.44 5.76 5.76 0 0 0 0 4 4.41 4.41 0 0 0 .95 1.47 4 4 0 0 0 1.39.91 4.57 4.57 0 0 0 1.67.31 5.39 5.39 0 0 0 1.39-.2 7.14 7.14 0 0 0 1.33-.49 4.21 4.21 0 0 0 1-.68 1 1 0 0 0 .41-.71.57.57 0 0 0-.08-.31l.29-.21 1.37 2.75zm3.4 1.4q.54 0 .54-.47V56.67q0-.47-.54-.47v-.47h3.45v.47q-.54 0-.54.47v11.8q0 .47.54.47v.47h-3.45zm17.25-10.39a.52.52 0 0 0-.18-.43 1 1 0 0 0-.61-.14h-6.73v3.22h4.07a1.22 1.22 0 0 0 .64-.14q.23-.14.23-.74h.41v4.05h-.37q0-.6-.23-.77a1.07 1.07 0 0 0-.64-.17h-4.07V67h6.94a.72.72 0 0 0 .51-.18.64.64 0 0 0 .2-.49h.37v3.56h-.37q0-.39-.2-.44a2 2 0 0 0-.51-.05h-9.69v-.47a.35.35 0 0 0 .26-.12.49.49 0 0 0 .11-.35V56.67a.48.48 0 0 0-.11-.35.35.35 0 0 0-.26-.12v-.47h9.48a.88.88 0 0 0 .61-.17.6.6 0 0 0 .18-.45h.37v3.43zm3.7 10.39q.39 0 .39-.47V56.67q0-.47-.39-.47v-.47h3.55v.47c-.11 0-.17.09-.17.26a1.59 1.59 0 0 0 .42.73l6 7.74v-8.26q0-.47-.54-.47v-.47h3.14v.47q-.4 0-.39.47v11.8q0 .47.39.47v.47h-3.37v-.47q.27 0 .27-.23a1.26 1.26 0 0 0-.33-.6l-6.34-8.26v8.63a.42.42 0 0 0 .48.47v.47h-3.08zm27.61-1.4h-.23a1.73 1.73 0 0 0-.59.31q-.47.31-1.18.7a9.07 9.07 0 0 1-1.63.68 6.37 6.37 0 0 1-1.91.29 7.65 7.65 0 0 1-2.51-.42 5.85 5.85 0 0 1-2.13-1.29 6.19 6.19 0 0 1-1.47-2.17 8.78 8.78 0 0 1 0-6.07 6.3 6.3 0 0 1 1.47-2.2 6.09 6.09 0 0 1 2.11-1.36 7.26 7.26 0 0 1 2.51-.44 8.22 8.22 0 0 1 1.92.21 14.4 14.4 0 0 1 1.51.44 7.29 7.29 0 0 1 1 .44 1.62 1.62 0 0 0 .46.21.21.21 0 0 0 .18-.13l.11-.21.31.31-1.6 3.17-.21-.18a1.2 1.2 0 0 0 0-.16v-.18a1 1 0 0 0-.42-.58 4 4 0 0 0-.92-.53 8 8 0 0 0-1.16-.39 4.62 4.62 0 0 0-1.13-.16 4.56 4.56 0 0 0-1.67.31 4 4 0 0 0-1.39.91 4.41 4.41 0 0 0-.95 1.47 5.76 5.76 0 0 0 0 4 4.41 4.41 0 0 0 .95 1.47 4 4 0 0 0 1.39.91 4.57 4.57 0 0 0 1.67.31 5.39 5.39 0 0 0 1.39-.2 7.14 7.14 0 0 0 1.33-.49 4.21 4.21 0 0 0 1-.68 1 1 0 0 0 .41-.71.57.57 0 0 0-.08-.31l.29-.21 1.37 2.75zm13.73-8.99a.52.52 0 0 0-.18-.43 1 1 0 0 0-.61-.14h-6.73v3.22h4.07a1.22 1.22 0 0 0 .64-.14q.23-.14.23-.74h.37v4.05h-.37q0-.6-.23-.77a1.07 1.07 0 0 0-.64-.17h-4.07V67h6.94a.72.72 0 0 0 .51-.18.64.64 0 0 0 .2-.49h.37v3.56h-.37q0-.39-.2-.44a2 2 0 0 0-.51-.05h-9.69v-.47a.35.35 0 0 0 .26-.12.49.49 0 0 0 .11-.35V56.67a.48.48 0 0 0-.11-.35.35.35 0 0 0-.26-.12v-.47h9.48a.88.88 0 0 0 .61-.17.6.6 0 0 0 .18-.45h.37v3.43zm21.47 8.99h-.23a1.73 1.73 0 0 0-.59.31q-.47.31-1.18.7a9.07 9.07 0 0 1-1.63.68 6.37 6.37 0 0 1-1.91.29 7.65 7.65 0 0 1-2.51-.42 5.85 5.85 0 0 1-2.13-1.29 6.19 6.19 0 0 1-1.5-2.19 8.78 8.78 0 0 1 0-6.07 6.3 6.3 0 0 1 1.47-2.2 6.09 6.09 0 0 1 2.15-1.34 7.26 7.26 0 0 1 2.51-.44 8.22 8.22 0 0 1 1.92.21 14.4 14.4 0 0 1 1.51.44 7.29 7.29 0 0 1 1 .44 1.62 1.62 0 0 0 .46.21.21.21 0 0 0 .18-.13l.11-.21.31.31L224 60l-.21-.18a1.2 1.2 0 0 0 0-.16v-.18a1 1 0 0 0-.42-.58 4 4 0 0 0-.92-.53 8 8 0 0 0-1.16-.39 4.62 4.62 0 0 0-1.13-.16 4.56 4.56 0 0 0-1.67.31 4 4 0 0 0-1.39.91 4.41 4.41 0 0 0-.95 1.47 5.77 5.77 0 0 0 0 4 4.41 4.41 0 0 0 .95 1.47 4 4 0 0 0 1.39.91 4.57 4.57 0 0 0 1.67.31 5.39 5.39 0 0 0 1.39-.2 7.14 7.14 0 0 0 1.33-.49 4.21 4.21 0 0 0 1-.68 1 1 0 0 0 .41-.71.57.57 0 0 0-.08-.31l.29-.21 1.37 2.75zm13.74-8.99a.52.52 0 0 0-.18-.43 1 1 0 0 0-.61-.14h-6.73v3.22h4.1a1.22 1.22 0 0 0 .64-.14q.23-.14.23-.74h.37v4.05h-.37q0-.6-.23-.77a1.07 1.07 0 0 0-.64-.17h-4.1V67h6.94a.72.72 0 0 0 .51-.18.64.64 0 0 0 .2-.49h.37v3.56h-.37q0-.39-.2-.44a2 2 0 0 0-.51-.05h-9.69v-.47a.35.35 0 0 0 .26-.12.49.49 0 0 0 .11-.35V56.67a.48.48 0 0 0-.11-.35.35.35 0 0 0-.26-.12v-.47h9.48a.88.88 0 0 0 .61-.17.6.6 0 0 0 .18-.45h.37v3.43zm3.7 10.39q.39 0 .39-.47V56.67q0-.47-.39-.47v-.47h3.55v.47c-.11 0-.17.09-.17.26a1.59 1.59 0 0 0 .42.73l6 7.74v-8.26q0-.47-.54-.47v-.47h3.14v.47q-.4 0-.39.47v11.8q0 .47.39.47v.47h-3.37v-.47q.27 0 .27-.23a1.26 1.26 0 0 0-.33-.6l-6.34-8.26v8.63a.42.42 0 0 0 .48.47v.47h-3.08zm21.8-.46a.41.41 0 0 0 .46.47v.47h-3.2v-.47a.36.36 0 0 0 .26-.12.49.49 0 0 0 .11-.35V58.13h-3.43a.61.61 0 0 0-.36.13.58.58 0 0 0-.18.49h-.37v-3.64h.37a.58.58 0 0 0 .18.49.6.6 0 0 0 .36.13h9.23a.61.61 0 0 0 .36-.13.58.58 0 0 0 .18-.49h.37v3.64h-.37a.58.58 0 0 0-.18-.49.61.61 0 0 0-.36-.13h-3.43zm17.23-9.93a.52.52 0 0 0-.18-.43 1 1 0 0 0-.61-.14h-6.73v3.22h4.07a1.22 1.22 0 0 0 .64-.14q.23-.14.23-.74h.43v4.05h-.37q0-.6-.23-.77a1.07 1.07 0 0 0-.64-.17h-4.07V67h6.94a.72.72 0 0 0 .51-.18.64.64 0 0 0 .2-.49h.37v3.56h-.37q0-.39-.2-.44a2 2 0 0 0-.51-.05h-9.69v-.47a.36.36 0 0 0 .26-.12.49.49 0 0 0 .11-.35V56.67a.48.48 0 0 0-.11-.35.36.36 0 0 0-.26-.12v-.47h9.48a.88.88 0 0 0 .61-.17.6.6 0 0 0 .18-.45h.37v3.43zm10.58-2.8a6.89 6.89 0 0 1 1.81.22 3.68 3.68 0 0 1 1.39.7 3.1 3.1 0 0 1 .89 1.25 5 5 0 0 1 .31 1.88 3.82 3.82 0 0 1-.81 2.62 4 4 0 0 1-2.18 1.22l2.76 4.94a.58.58 0 0 0 .34.31 1.43 1.43 0 0 0 .36.05v.47h-3.89v-.47a.64.64 0 0 0 .32-.08.23.23 0 0 0 .14-.21.7.7 0 0 0-.08-.3q-.08-.17-.25-.45l-2.29-4.05h-3v4.62a.44.44 0 0 0 .13.35.76.76 0 0 0 .49.12v.47h-3.6v-.47q.6 0 .6-.47V56.67q0-.47-.6-.47v-.47zm-.54 6.08a4.6 4.6 0 0 0 1.25-.14 2 2 0 0 0 .79-.4 1.47 1.47 0 0 0 .42-.61 2.42 2.42 0 0 0 0-1.53 1.47 1.47 0 0 0-.42-.61 2 2 0 0 0-.79-.4 4.62 4.62 0 0 0-1.25-.14h-3.6v3.84z"/></svg>